<?xml version="1.0" encoding="UTF-8"?><svg xmlns="http://www.w3.org/2000/svg" width="1069.88" height="183.62" xmlns:xlink="http://www.w3.org/1999/xlink" viewBox="0 0 1069.88 183.62"><defs><style>.cls-1{fill:#fff;}.cls-2{fill:url(#gradient1);}.cls-3{fill:url(#gradient2);}.cls-4{fill:url(#gradient3);}.cls-5{fill:url(#gradient4);}</style><linearGradient id="gradient1" x1="90.15" y1="-26.49" x2="210" y2="93.36" gradientUnits="userSpaceOnUse"><stop offset="0" stop-color="#163469"/><stop offset="1" stop-color="#000"/></linearGradient><linearGradient id="gradient3" x1="196.39" y1="79.03" x2="223.41" y2="79.03" gradientUnits="userSpaceOnUse"><stop offset="0" stop-color="#211d23"/><stop offset="1" stop-color="#000"/></linearGradient><linearGradient id="gradient4" x1="928.7" y1="65.95" x2="1049.2" y2="186.46" gradientTransform="translate(1095.61) rotate(-180) scale(1 -1)" gradientUnits="userSpaceOnUse"><stop offset="0" stop-color="#f2f2f2"/><stop offset="1" stop-color="#ccc"/></linearGradient><linearGradient id="gradient2" x1="1035.37" y1="171.46" x2="1062.38" y2="171.46" gradientTransform="translate(1095.61) rotate(-180) scale(1 -1)" gradientUnits="userSpaceOnUse"><stop offset="0" stop-color="#d2d2d2"/><stop offset="1" stop-color="#ccc"/></linearGradient></defs><g><g><rect class="cls-2" x="44.07" y="0" width="212.01" height="66.87" rx="33.44" ry="33.44"/><circle class="cls-1" cx="122.85" cy="33.73" r="7.22"/><circle class="cls-1" cx="150.21" cy="33.73" r="7.22"/><circle class="cls-1" cx="176.8" cy="33.73" r="7.22"/><path class="cls-4" d="M196.39,66.87s8.02,18.24,27.02,24.32c-.86-1.3-6.94-10.82-3.04-19.76,.58-1.33,1.51-2.94,3.04-4.56h-27.02Z"/><rect class="cls-5" x="0" y="92.77" width="213.32" height="66.87" rx="33.44" ry="33.44"/><circle class="cls-1" cx="133.87" cy="126.5" r="7.22"/><circle class="cls-1" cx="106.52" cy="126.5" r="7.22"/><circle class="cls-1" cx="79.92" cy="126.5" r="7.22"/><path class="cls-3" d="M60.24,159.31s-8.02,18.24-27.02,24.32c.86-1.3,6.94-10.82,3.04-19.76-.58-1.33-1.51-2.94-3.04-4.56h27.02Z"/></g><g><path d="M361.27,118.14l-25.12-62.8h15.88l12.11,32.03c.72,1.85,1.33,3.47,1.84,4.84,.51,1.38,.96,2.66,1.35,3.86,.39,1.2,.75,2.41,1.08,3.63,.33,1.23,.7,2.62,1.12,4.17h-2.78c.48-2.03,.96-3.84,1.44-5.43,.48-1.58,1.02-3.23,1.61-4.93,.6-1.71,1.35-3.75,2.24-6.14l11.66-32.03h15.61l-25.3,62.8h-12.74Z"/><path d="M436.09,119.04c-4.73,0-9.08-.79-13.05-2.38-3.98-1.58-7.43-3.83-10.36-6.73-2.93-2.9-5.19-6.34-6.77-10.32-1.59-3.98-2.38-8.36-2.38-13.14s.84-8.97,2.51-12.92c1.67-3.95,3.99-7.37,6.95-10.27,2.96-2.9,6.46-5.16,10.5-6.77,4.04-1.62,8.45-2.42,13.23-2.42,2.99,0,5.92,.39,8.79,1.17,2.87,.78,5.55,1.93,8.03,3.45,2.48,1.53,4.62,3.34,6.41,5.43l-9.33,10.68c-1.26-1.31-2.59-2.47-3.99-3.45-1.41-.99-2.95-1.75-4.62-2.29-1.67-.54-3.47-.81-5.38-.81-2.39,0-4.65,.44-6.77,1.3-2.12,.87-3.98,2.09-5.56,3.68-1.59,1.59-2.83,3.52-3.72,5.79-.9,2.27-1.35,4.81-1.35,7.62s.45,5.25,1.35,7.49c.9,2.24,2.15,4.17,3.77,5.79s3.57,2.84,5.88,3.68c2.3,.84,4.86,1.26,7.67,1.26,1.91,0,3.74-.27,5.47-.81,1.73-.54,3.33-1.27,4.8-2.2,1.46-.93,2.77-1.99,3.9-3.19l7.36,11.66c-1.5,1.68-3.48,3.17-5.97,4.49-2.48,1.32-5.23,2.35-8.25,3.09-3.02,.75-6.06,1.12-9.11,1.12Z"/><path d="M496.91,119.12c-2.15,0-4.22-.3-6.19-.9s-3.75-1.4-5.34-2.42c-1.59-1.02-2.9-2.2-3.95-3.54-1.05-1.35-1.75-2.74-2.11-4.17l3.14-1.08-.81,11.03h-13.37V51.75h14.44v30.14l-2.96-1.08c.36-1.55,1.05-3.01,2.06-4.35,1.02-1.35,2.3-2.54,3.86-3.59,1.55-1.05,3.26-1.87,5.11-2.47,1.85-.6,3.77-.9,5.74-.9,4.13,0,7.79,1.06,10.99,3.19,3.2,2.12,5.73,5.05,7.58,8.79,1.85,3.74,2.78,8,2.78,12.78s-.91,9.14-2.74,12.88c-1.83,3.74-4.32,6.67-7.49,8.79-3.17,2.12-6.76,3.18-10.77,3.18Zm-3.77-12.11c2.15,0,4.04-.54,5.65-1.62s2.85-2.56,3.72-4.44c.87-1.88,1.3-4.11,1.3-6.68s-.43-4.72-1.3-6.64c-.87-1.91-2.11-3.38-3.72-4.39s-3.5-1.53-5.65-1.53-4.13,.51-5.74,1.53c-1.61,1.02-2.87,2.48-3.77,4.39-.9,1.92-1.35,4.13-1.35,6.64s.45,4.8,1.35,6.68c.9,1.88,2.15,3.37,3.77,4.44,1.62,1.08,3.53,1.62,5.74,1.62Z"/><path d="M549.75,119.04c-4.96,0-9.37-1.08-13.23-3.23-3.86-2.15-6.91-5.08-9.15-8.79-2.24-3.71-3.36-7.95-3.36-12.74s1.12-9.03,3.36-12.74c2.24-3.71,5.29-6.64,9.15-8.79,3.86-2.15,8.27-3.23,13.23-3.23s9.38,1.08,13.23,3.23c3.86,2.15,6.89,5.08,9.11,8.79,2.21,3.71,3.32,7.96,3.32,12.74s-1.11,9.03-3.32,12.74c-2.21,3.71-5.25,6.64-9.11,8.79s-8.27,3.23-13.23,3.23Zm0-12.38c2.15,0,4.07-.54,5.74-1.62,1.67-1.08,2.99-2.54,3.95-4.39,.96-1.85,1.4-3.98,1.35-6.37,.06-2.39-.39-4.53-1.35-6.41-.96-1.88-2.27-3.36-3.95-4.44-1.68-1.08-3.59-1.62-5.74-1.62s-4.08,.54-5.79,1.62c-1.7,1.08-3.04,2.56-3.99,4.44-.96,1.88-1.41,4.02-1.35,6.41-.06,2.39,.39,4.52,1.35,6.37,.96,1.85,2.29,3.32,3.99,4.39s3.63,1.62,5.79,1.62Z"/><path d="M584.83,118.14v-47.63h13.64l.63,15.52-2.69-2.96c.72-2.57,1.9-4.87,3.54-6.91,1.64-2.03,3.57-3.65,5.79-4.84,2.21-1.2,4.58-1.79,7.09-1.79,1.08,0,2.08,.09,3.01,.27,.93,.18,1.78,.39,2.56,.63l-3.95,15.88c-.66-.42-1.54-.76-2.65-1.03-1.11-.27-2.26-.4-3.45-.4-1.32,0-2.54,.22-3.68,.67-1.14,.45-2.09,1.09-2.87,1.93-.78,.84-1.39,1.82-1.84,2.96-.45,1.14-.67,2.42-.67,3.86v23.86h-14.44Z"/><path d="M625.64,118.14v-47.63h13.64l.45,9.69-2.87,1.08c.66-2.15,1.84-4.11,3.54-5.88,1.7-1.76,3.75-3.19,6.15-4.26,2.39-1.08,4.9-1.62,7.54-1.62,3.59,0,6.61,.73,9.06,2.2,2.45,1.46,4.31,3.65,5.56,6.55,1.26,2.9,1.88,6.45,1.88,10.63v29.24h-14.44v-28.08c0-1.91-.27-3.5-.81-4.76-.54-1.26-1.36-2.2-2.47-2.83-1.11-.63-2.47-.91-4.08-.85-1.26,0-2.42,.2-3.5,.58s-2,.96-2.78,1.7c-.78,.75-1.39,1.6-1.84,2.56-.45,.96-.67,2.01-.67,3.14v28.53h-14.35Z"/><path d="M733.66,119.04c-4.13,0-7.85-.49-11.17-1.48-3.32-.99-6.27-2.42-8.84-4.31-2.57-1.88-4.88-4.11-6.91-6.68l9.24-10.5c2.99,4.01,6,6.7,9.02,8.07,3.02,1.38,6.15,2.06,9.37,2.06,1.61,0,3.08-.21,4.4-.63,1.31-.42,2.33-1.03,3.05-1.84,.72-.81,1.08-1.81,1.08-3.01,0-.9-.22-1.7-.67-2.42-.45-.72-1.06-1.35-1.84-1.88-.78-.54-1.7-1.03-2.78-1.48-1.08-.45-2.21-.84-3.41-1.17-1.2-.33-2.42-.61-3.68-.85-3.47-.78-6.49-1.73-9.06-2.87-2.57-1.14-4.71-2.53-6.41-4.17s-2.98-3.53-3.81-5.65c-.84-2.12-1.26-4.5-1.26-7.13,0-2.81,.64-5.4,1.93-7.76,1.29-2.36,3.02-4.39,5.2-6.1,2.18-1.71,4.71-3.02,7.58-3.95,2.87-.93,5.86-1.39,8.97-1.39,4.13,0,7.67,.44,10.63,1.3,2.96,.87,5.5,2.11,7.63,3.72,2.12,1.62,3.93,3.56,5.43,5.83l-9.42,9.06c-1.26-1.55-2.62-2.84-4.08-3.86-1.47-1.02-3.02-1.79-4.67-2.33-1.65-.54-3.33-.81-5.07-.81s-3.33,.22-4.62,.67c-1.29,.45-2.29,1.08-3.01,1.88-.72,.81-1.08,1.78-1.08,2.92,0,1.02,.3,1.88,.9,2.6,.6,.72,1.4,1.36,2.42,1.93,1.02,.57,2.18,1.05,3.5,1.44,1.31,.39,2.69,.7,4.13,.94,3.29,.66,6.26,1.53,8.93,2.6,2.66,1.08,4.96,2.39,6.91,3.95,1.94,1.56,3.44,3.39,4.49,5.52,1.05,2.12,1.57,4.59,1.57,7.4,0,4.37-1.06,8.06-3.19,11.08-2.12,3.02-5.02,5.32-8.7,6.91s-7.91,2.38-12.69,2.38Z"/><path d="M784.43,119.12c-3.53,0-6.53-.76-9.02-2.29-2.48-1.53-4.4-3.72-5.74-6.59s-2.02-6.31-2.02-10.32v-29.42h14.44v27.45c0,1.91,.3,3.56,.9,4.93,.6,1.38,1.49,2.44,2.69,3.18,1.2,.75,2.63,1.12,4.31,1.12,1.26,0,2.41-.21,3.45-.63,1.05-.42,1.94-1,2.69-1.75,.75-.75,1.33-1.61,1.75-2.6,.42-.99,.63-2.08,.63-3.27v-28.44h14.44v47.63h-13.55l-.63-9.78,2.69-1.08c-.72,2.27-1.91,4.29-3.59,6.05-1.67,1.76-3.68,3.17-6.01,4.22-2.33,1.04-4.81,1.57-7.45,1.57Z"/><path d="M825.79,137.87V70.5h13.64l.54,10.67-2.69-.81c.42-1.97,1.44-3.77,3.05-5.38s3.66-2.92,6.15-3.9c2.48-.99,5.1-1.48,7.85-1.48,4.07,0,7.68,1.06,10.85,3.19,3.17,2.12,5.67,5.02,7.49,8.7,1.82,3.68,2.74,7.94,2.74,12.78s-.91,9.03-2.74,12.74c-1.83,3.71-4.34,6.62-7.54,8.75-3.2,2.12-6.86,3.19-10.99,3.19-2.69,0-5.26-.51-7.71-1.53-2.45-1.02-4.52-2.39-6.19-4.13-1.68-1.73-2.78-3.62-3.32-5.65l3.32-1.26v31.49h-14.44Zm24.85-31.04c2.15,0,4.04-.52,5.65-1.57,1.61-1.04,2.87-2.5,3.77-4.35,.9-1.85,1.35-4.07,1.35-6.64s-.45-4.71-1.35-6.59c-.9-1.88-2.14-3.35-3.72-4.39-1.59-1.05-3.48-1.57-5.7-1.57s-4.13,.51-5.74,1.53c-1.61,1.02-2.87,2.48-3.77,4.39-.9,1.92-1.35,4.13-1.35,6.64s.45,4.79,1.35,6.64c.9,1.86,2.15,3.31,3.77,4.35,1.62,1.05,3.53,1.57,5.74,1.57Z"/><path d="M884.91,137.87V70.5h13.64l.54,10.67-2.69-.81c.42-1.97,1.44-3.77,3.05-5.38,1.62-1.62,3.66-2.92,6.15-3.9,2.48-.99,5.1-1.48,7.85-1.48,4.07,0,7.68,1.06,10.86,3.19,3.17,2.12,5.67,5.02,7.49,8.7,1.82,3.68,2.74,7.94,2.74,12.78s-.91,9.03-2.74,12.74c-1.83,3.71-4.34,6.62-7.54,8.75-3.2,2.12-6.86,3.19-10.99,3.19-2.69,0-5.26-.51-7.71-1.53-2.45-1.02-4.52-2.39-6.19-4.13-1.68-1.73-2.78-3.62-3.32-5.65l3.32-1.26v31.49h-14.44Zm24.85-31.04c2.15,0,4.04-.52,5.65-1.57,1.62-1.04,2.87-2.5,3.77-4.35,.9-1.85,1.35-4.07,1.35-6.64s-.45-4.71-1.35-6.59c-.9-1.88-2.14-3.35-3.72-4.39-1.58-1.05-3.48-1.57-5.7-1.57s-4.13,.51-5.74,1.53c-1.61,1.02-2.87,2.48-3.77,4.39-.9,1.92-1.35,4.13-1.35,6.64s.45,4.79,1.35,6.64c.9,1.86,2.15,3.31,3.77,4.35,1.62,1.05,3.53,1.57,5.74,1.57Z"/><path d="M966.45,119.04c-4.96,0-9.38-1.08-13.23-3.23s-6.91-5.08-9.15-8.79-3.36-7.95-3.36-12.74,1.12-9.03,3.36-12.74c2.24-3.71,5.29-6.64,9.15-8.79,3.86-2.15,8.27-3.23,13.23-3.23s9.38,1.08,13.23,3.23c3.86,2.15,6.89,5.08,9.11,8.79,2.21,3.71,3.32,7.96,3.32,12.74s-1.11,9.03-3.32,12.74c-2.21,3.71-5.25,6.64-9.11,8.79s-8.27,3.23-13.23,3.23Zm0-12.38c2.15,0,4.07-.54,5.74-1.62,1.67-1.08,2.99-2.54,3.95-4.39,.96-1.85,1.4-3.98,1.35-6.37,.06-2.39-.39-4.53-1.35-6.41-.96-1.88-2.27-3.36-3.95-4.44-1.67-1.08-3.59-1.62-5.74-1.62s-4.08,.54-5.79,1.62c-1.71,1.08-3.04,2.56-3.99,4.44-.96,1.88-1.41,4.02-1.35,6.41-.06,2.39,.39,4.52,1.35,6.37,.96,1.85,2.29,3.32,3.99,4.39,1.7,1.08,3.63,1.62,5.79,1.62Z"/><path d="M1001.53,118.14v-47.63h13.64l.63,15.52-2.69-2.96c.72-2.57,1.9-4.87,3.54-6.91,1.64-2.03,3.57-3.65,5.79-4.84,2.21-1.2,4.58-1.79,7.09-1.79,1.08,0,2.08,.09,3,.27,.93,.18,1.78,.39,2.56,.63l-3.95,15.88c-.66-.42-1.54-.76-2.65-1.03-1.11-.27-2.26-.4-3.45-.4-1.32,0-2.54,.22-3.68,.67-1.14,.45-2.09,1.09-2.87,1.93-.78,.84-1.39,1.82-1.84,2.96-.45,1.14-.67,2.42-.67,3.86v23.86h-14.44Z"/><path d="M1037.86,83.06v-12.56h32.03v12.56h-32.03Zm8.43,35.08V58.48h14.35v59.66h-14.35Z"/></g></g></svg>