<?xml version="1.0" encoding="UTF-8"?><svg xmlns="http://www.w3.org/2000/svg" width="256.08" height="183.62" xmlns:xlink="http://www.w3.org/1999/xlink" viewBox="0 0 256.08 183.62"><defs><style>.cls-1{fill:#fff;}.cls-2{fill:url(#gradient1);}.cls-3{fill:url(#gradient2);}.cls-4{fill:url(#gradient3);}.cls-5{fill:url(#gradient4);}</style><linearGradient id="gradient1" x1="90.15" y1="-26.49" x2="210" y2="93.36" gradientUnits="userSpaceOnUse"><stop offset="0" stop-color="#163469"/><stop offset="1" stop-color="#000"/></linearGradient><linearGradient id="gradient3" x1="196.39" y1="79.03" x2="223.41" y2="79.03" gradientUnits="userSpaceOnUse"><stop offset="0" stop-color="#211d23"/><stop offset="1" stop-color="#000"/></linearGradient><linearGradient id="gradient4" x1="928.7" y1="65.95" x2="1049.2" y2="186.46" gradientTransform="translate(1095.61) rotate(-180) scale(1 -1)" gradientUnits="userSpaceOnUse"><stop offset="0" stop-color="#f2f2f2"/><stop offset="1" stop-color="#ccc"/></linearGradient><linearGradient id="gradient2" x1="1035.37" y1="171.46" x2="1062.38" y2="171.46" gradientTransform="translate(1095.61) rotate(-180) scale(1 -1)" gradientUnits="userSpaceOnUse"><stop offset="0" stop-color="#d2d2d2"/><stop offset="1" stop-color="#ccc"/></linearGradient></defs><g><g><rect class="cls-2" x="44.07" y="0" width="212.01" height="66.87" rx="33.44" ry="33.44"/><circle class="cls-1" cx="122.85" cy="33.73" r="7.22"/><circle class="cls-1" cx="150.21" cy="33.73" r="7.22"/><circle class="cls-1" cx="176.8" cy="33.73" r="7.22"/><path class="cls-4" d="M196.39,66.87s8.02,18.24,27.02,24.32c-.86-1.3-6.94-10.82-3.04-19.76,.58-1.33,1.51-2.94,3.04-4.56h-27.02Z"/><rect class="cls-5" x="0" y="92.77" width="213.32" height="66.87" rx="33.44" ry="33.44"/><circle class="cls-1" cx="133.87" cy="126.5" r="7.22"/><circle class="cls-1" cx="106.52" cy="126.5" r="7.22"/><circle class="cls-1" cx="79.92" cy="126.5" r="7.22"/><path class="cls-3" d="M60.24,159.31s-8.02,18.24-27.02,24.32c.86-1.3,6.94-10.82,3.04-19.76-.58-1.33-1.51-2.94-3.04-4.56h27.02Z"/></g></g></svg>